# xmcd
#
# Track frame offsets:
#	150
#	20725
#	41498
#	63333
#	86063
#	105240
#	118383
#	142955
#	160975
#	175385
#
# Disc length: 2751 seconds
#
# Revision: 0
# Processed by: cddbd v1.5.1PL2 Copyright (c) Steve Scherf et al.
# Submitted via: dBpowerAMP V4.0
#
DISCID=850abd0a
DTITLE=Various Artist - The SCD Essential Soul Collection (Vol.2)
DYEAR=1993
DGENRE=Soul
TTITLE0=Light of the World - London Town
TTITLE1=Rebel MC - Let jah light shine
TTITLE2=Mother Earth - Look to the Light
TTITLE3=Osibisa - Sunshine day
TTITLE4=Quincy Jones - Razzamatazz
TTITLE5=Jackie Wilson - I get the sweetest feeling
TTITLE6=Night crawlers - Do it together
TTITLE7=Chapter and verse - Darkness into the light
TTITLE8=The moments - Girls
TTITLE9=Alison Limerick - Trouble
EXTD=
EXTT0=
EXTT1=
EXTT2=
EXTT3=
EXTT4=
EXTT5=
EXTT6=
EXTT7=
EXTT8=
EXTT9=
PLAYORDER=
